<mxfile host="app.diagrams.net" agent="Mozilla/5.0 (Windows NT 10.0; Win64; x64) AppleWebKit/537.36 (KHTML, like Gecko) Chrome/141.0.0.0 Safari/537.36" version="28.2.5">
  <diagram name="Página-1" id="k-3ibFHg4S0U-xlwegbj">
    <mxGraphModel dx="2610" dy="946" grid="1" gridSize="10" guides="1" tooltips="1" connect="1" arrows="1" fold="1" page="1" pageScale="1" pageWidth="827" pageHeight="1169" math="0" shadow="0">
      <root>
        <mxCell id="0" />
        <mxCell id="1" parent="0" />
        <mxCell id="hnTgBydZxQqfQA9b3OAg-20" value="" style="rhombus;whiteSpace=wrap;html=1;" parent="1" vertex="1">
          <mxGeometry x="-120" y="270" width="160" height="170" as="geometry" />
        </mxCell>
        <mxCell id="hnTgBydZxQqfQA9b3OAg-21" style="edgeStyle=orthogonalEdgeStyle;rounded=0;orthogonalLoop=1;jettySize=auto;html=1;entryX=1;entryY=0.5;entryDx=0;entryDy=0;" parent="1" source="hnTgBydZxQqfQA9b3OAg-17" target="hnTgBydZxQqfQA9b3OAg-20" edge="1">
          <mxGeometry relative="1" as="geometry" />
        </mxCell>
        <mxCell id="hnTgBydZxQqfQA9b3OAg-17" value="" style="rounded=0;whiteSpace=wrap;html=1;" parent="1" vertex="1">
          <mxGeometry x="120" y="312.5" width="250" height="85" as="geometry" />
        </mxCell>
        <mxCell id="hnTgBydZxQqfQA9b3OAg-2" value="&lt;font style=&quot;font-size: 20px;&quot;&gt;Usuario&lt;/font&gt;" style="rounded=0;whiteSpace=wrap;html=1;" parent="1" vertex="1">
          <mxGeometry x="-450" y="315" width="230" height="80" as="geometry" />
        </mxCell>
        <mxCell id="hnTgBydZxQqfQA9b3OAg-4" value="&lt;font style=&quot;font-size: 20px;&quot;&gt;PromesaDePago&lt;/font&gt;" style="rounded=0;whiteSpace=wrap;html=1;" parent="1" vertex="1">
          <mxGeometry x="130" y="320" width="230" height="70" as="geometry" />
        </mxCell>
        <mxCell id="hnTgBydZxQqfQA9b3OAg-7" style="edgeStyle=orthogonalEdgeStyle;rounded=0;orthogonalLoop=1;jettySize=auto;html=1;entryX=1;entryY=0.5;entryDx=0;entryDy=0;" parent="1" source="hnTgBydZxQqfQA9b3OAg-5" target="hnTgBydZxQqfQA9b3OAg-2" edge="1">
          <mxGeometry relative="1" as="geometry" />
        </mxCell>
        <mxCell id="hnTgBydZxQqfQA9b3OAg-5" value="Generado&lt;div&gt;Por&lt;/div&gt;" style="rhombus;whiteSpace=wrap;html=1;" parent="1" vertex="1">
          <mxGeometry x="-110" y="280" width="140" height="150" as="geometry" />
        </mxCell>
        <mxCell id="hnTgBydZxQqfQA9b3OAg-9" value="" style="ellipse;whiteSpace=wrap;html=1;aspect=fixed;" parent="1" vertex="1">
          <mxGeometry x="-170" y="340" width="30" height="30" as="geometry" />
        </mxCell>
        <mxCell id="hnTgBydZxQqfQA9b3OAg-14" value="1" style="text;strokeColor=none;fillColor=none;align=left;verticalAlign=middle;spacingLeft=4;spacingRight=4;overflow=hidden;points=[[0,0.5],[1,0.5]];portConstraint=eastwest;rotatable=0;whiteSpace=wrap;html=1;fontSize=20;" parent="1" vertex="1">
          <mxGeometry x="-190" y="295" width="80" height="30" as="geometry" />
        </mxCell>
        <mxCell id="hnTgBydZxQqfQA9b3OAg-15" value="M" style="text;strokeColor=none;fillColor=none;align=left;verticalAlign=middle;spacingLeft=4;spacingRight=4;overflow=hidden;points=[[0,0.5],[1,0.5]];portConstraint=eastwest;rotatable=0;whiteSpace=wrap;html=1;fontSize=20;" parent="1" vertex="1">
          <mxGeometry x="60" y="295" width="80" height="30" as="geometry" />
        </mxCell>
        <mxCell id="hnTgBydZxQqfQA9b3OAg-22" value="&lt;font style=&quot;font-size: 16px;&quot;&gt;NombreUsuario&lt;/font&gt;" style="ellipse;whiteSpace=wrap;html=1;" parent="1" vertex="1">
          <mxGeometry x="-600" y="160" width="140" height="60" as="geometry" />
        </mxCell>
        <mxCell id="hnTgBydZxQqfQA9b3OAg-24" value="" style="endArrow=none;html=1;rounded=0;entryX=0.5;entryY=1;entryDx=0;entryDy=0;exitX=0;exitY=0;exitDx=0;exitDy=0;" parent="1" source="hnTgBydZxQqfQA9b3OAg-2" target="hnTgBydZxQqfQA9b3OAg-22" edge="1">
          <mxGeometry width="50" height="50" relative="1" as="geometry">
            <mxPoint x="10" y="340" as="sourcePoint" />
            <mxPoint x="60" y="290" as="targetPoint" />
          </mxGeometry>
        </mxCell>
        <mxCell id="hnTgBydZxQqfQA9b3OAg-25" value="&lt;font style=&quot;font-size: 18px;&quot;&gt;Contraseña&lt;/font&gt;" style="ellipse;whiteSpace=wrap;html=1;" parent="1" vertex="1">
          <mxGeometry x="-440" y="165" width="130" height="50" as="geometry" />
        </mxCell>
        <mxCell id="hnTgBydZxQqfQA9b3OAg-26" value="" style="endArrow=none;html=1;rounded=0;entryX=0.5;entryY=1;entryDx=0;entryDy=0;exitX=0.25;exitY=0;exitDx=0;exitDy=0;" parent="1" source="hnTgBydZxQqfQA9b3OAg-2" target="hnTgBydZxQqfQA9b3OAg-25" edge="1">
          <mxGeometry width="50" height="50" relative="1" as="geometry">
            <mxPoint x="-390" y="310" as="sourcePoint" />
            <mxPoint x="-460" y="290" as="targetPoint" />
          </mxGeometry>
        </mxCell>
        <mxCell id="hnTgBydZxQqfQA9b3OAg-28" value="&lt;font style=&quot;font-size: 18px;&quot;&gt;Rol&lt;/font&gt;" style="ellipse;whiteSpace=wrap;html=1;" parent="1" vertex="1">
          <mxGeometry x="-290" y="170" width="130" height="50" as="geometry" />
        </mxCell>
        <mxCell id="hnTgBydZxQqfQA9b3OAg-30" value="" style="endArrow=none;html=1;rounded=0;entryX=0.372;entryY=0.963;entryDx=0;entryDy=0;exitX=0.25;exitY=0;exitDx=0;exitDy=0;entryPerimeter=0;" parent="1" target="hnTgBydZxQqfQA9b3OAg-28" edge="1">
          <mxGeometry width="50" height="50" relative="1" as="geometry">
            <mxPoint x="-290" y="315" as="sourcePoint" />
            <mxPoint x="-273" y="215" as="targetPoint" />
          </mxGeometry>
        </mxCell>
        <mxCell id="hnTgBydZxQqfQA9b3OAg-31" value="" style="endArrow=none;html=1;rounded=0;entryX=0.5;entryY=0;entryDx=0;entryDy=0;" parent="1" source="hnTgBydZxQqfQA9b3OAg-2" target="hnTgBydZxQqfQA9b3OAg-32" edge="1">
          <mxGeometry width="50" height="50" relative="1" as="geometry">
            <mxPoint x="-335" y="445" as="sourcePoint" />
            <mxPoint x="-335" y="465.71067811865476" as="targetPoint" />
          </mxGeometry>
        </mxCell>
        <mxCell id="hnTgBydZxQqfQA9b3OAg-32" value="&lt;span style=&quot;font-size: 18px;&quot;&gt;Nombre&lt;/span&gt;" style="ellipse;whiteSpace=wrap;html=1;" parent="1" vertex="1">
          <mxGeometry x="-330" y="445" width="130" height="50" as="geometry" />
        </mxCell>
        <mxCell id="hnTgBydZxQqfQA9b3OAg-34" value="&lt;span style=&quot;font-size: 18px;&quot;&gt;Id&lt;/span&gt;" style="ellipse;whiteSpace=wrap;html=1;" parent="1" vertex="1">
          <mxGeometry x="-480" y="445" width="130" height="50" as="geometry" />
        </mxCell>
        <mxCell id="hnTgBydZxQqfQA9b3OAg-35" value="" style="endArrow=none;html=1;rounded=0;entryX=0.5;entryY=0;entryDx=0;entryDy=0;exitX=0.359;exitY=0.998;exitDx=0;exitDy=0;exitPerimeter=0;" parent="1" source="hnTgBydZxQqfQA9b3OAg-2" target="hnTgBydZxQqfQA9b3OAg-34" edge="1">
          <mxGeometry width="50" height="50" relative="1" as="geometry">
            <mxPoint x="-270" y="420" as="sourcePoint" />
            <mxPoint x="-214" y="470" as="targetPoint" />
          </mxGeometry>
        </mxCell>
        <mxCell id="hnTgBydZxQqfQA9b3OAg-37" value="" style="endArrow=none;html=1;rounded=0;" parent="1" edge="1">
          <mxGeometry width="50" height="50" relative="1" as="geometry">
            <mxPoint x="-455" y="480" as="sourcePoint" />
            <mxPoint x="-375" y="480" as="targetPoint" />
          </mxGeometry>
        </mxCell>
        <mxCell id="hnTgBydZxQqfQA9b3OAg-38" value="&lt;font style=&quot;font-size: 18px;&quot;&gt;NumCaso&lt;/font&gt;" style="ellipse;whiteSpace=wrap;html=1;" parent="1" vertex="1">
          <mxGeometry x="490" y="330" width="130" height="50" as="geometry" />
        </mxCell>
        <mxCell id="hnTgBydZxQqfQA9b3OAg-39" value="&lt;span style=&quot;font-size: 18px;&quot;&gt;UsuarioML&lt;/span&gt;" style="ellipse;whiteSpace=wrap;html=1;" parent="1" vertex="1">
          <mxGeometry x="220" y="160" width="120" height="40" as="geometry" />
        </mxCell>
        <mxCell id="hnTgBydZxQqfQA9b3OAg-40" value="&lt;span style=&quot;font-size: 18px;&quot;&gt;idCanal&lt;/span&gt;" style="ellipse;whiteSpace=wrap;html=1;" parent="1" vertex="1">
          <mxGeometry x="479" y="470" width="130" height="50" as="geometry" />
        </mxCell>
        <mxCell id="hnTgBydZxQqfQA9b3OAg-41" value="&lt;span style=&quot;font-size: 18px;&quot;&gt;idSite&lt;/span&gt;" style="ellipse;whiteSpace=wrap;html=1;" parent="1" vertex="1">
          <mxGeometry x="-20" y="460" width="130" height="50" as="geometry" />
        </mxCell>
        <mxCell id="hnTgBydZxQqfQA9b3OAg-42" value="&lt;span style=&quot;font-size: 18px;&quot;&gt;FechaCarga&lt;/span&gt;" style="ellipse;whiteSpace=wrap;html=1;" parent="1" vertex="1">
          <mxGeometry x="70" y="190" width="120" height="40" as="geometry" />
        </mxCell>
        <mxCell id="hnTgBydZxQqfQA9b3OAg-43" value="&lt;span style=&quot;font-size: 18px;&quot;&gt;IdTipoAcuerdo&lt;/span&gt;" style="ellipse;whiteSpace=wrap;html=1;" parent="1" vertex="1">
          <mxGeometry x="310" y="470" width="130" height="50" as="geometry" />
        </mxCell>
        <mxCell id="hnTgBydZxQqfQA9b3OAg-44" value="&lt;span style=&quot;font-size: 18px;&quot;&gt;IdOperador&lt;/span&gt;" style="ellipse;whiteSpace=wrap;html=1;" parent="1" vertex="1">
          <mxGeometry x="349" y="190" width="130" height="50" as="geometry" />
        </mxCell>
        <mxCell id="hnTgBydZxQqfQA9b3OAg-46" value="" style="endArrow=none;html=1;rounded=0;entryX=0;entryY=0.5;entryDx=0;entryDy=0;exitX=1;exitY=0.5;exitDx=0;exitDy=0;" parent="1" source="hnTgBydZxQqfQA9b3OAg-17" target="hnTgBydZxQqfQA9b3OAg-38" edge="1">
          <mxGeometry width="50" height="50" relative="1" as="geometry">
            <mxPoint x="-50" y="347" as="sourcePoint" />
            <mxPoint x="-2" y="250" as="targetPoint" />
          </mxGeometry>
        </mxCell>
        <mxCell id="hnTgBydZxQqfQA9b3OAg-47" value="" style="endArrow=none;html=1;rounded=0;entryX=0.5;entryY=1;entryDx=0;entryDy=0;exitX=0.309;exitY=0.01;exitDx=0;exitDy=0;exitPerimeter=0;" parent="1" source="hnTgBydZxQqfQA9b3OAg-17" target="hnTgBydZxQqfQA9b3OAg-42" edge="1">
          <mxGeometry width="50" height="50" relative="1" as="geometry">
            <mxPoint x="243" y="403" as="sourcePoint" />
            <mxPoint x="140" y="280" as="targetPoint" />
          </mxGeometry>
        </mxCell>
        <mxCell id="hnTgBydZxQqfQA9b3OAg-48" value="" style="endArrow=none;html=1;rounded=0;entryX=0.5;entryY=1;entryDx=0;entryDy=0;exitX=0.57;exitY=-0.029;exitDx=0;exitDy=0;exitPerimeter=0;" parent="1" source="hnTgBydZxQqfQA9b3OAg-17" target="hnTgBydZxQqfQA9b3OAg-39" edge="1">
          <mxGeometry width="50" height="50" relative="1" as="geometry">
            <mxPoint x="473" y="413" as="sourcePoint" />
            <mxPoint x="370" y="290" as="targetPoint" />
          </mxGeometry>
        </mxCell>
        <mxCell id="hnTgBydZxQqfQA9b3OAg-49" value="" style="endArrow=none;html=1;rounded=0;exitX=0.038;exitY=0.987;exitDx=0;exitDy=0;exitPerimeter=0;entryX=0.5;entryY=0;entryDx=0;entryDy=0;" parent="1" source="hnTgBydZxQqfQA9b3OAg-17" edge="1" target="hnTgBydZxQqfQA9b3OAg-41">
          <mxGeometry width="50" height="50" relative="1" as="geometry">
            <mxPoint x="310" y="310" as="sourcePoint" />
            <mxPoint x="340" y="270" as="targetPoint" />
          </mxGeometry>
        </mxCell>
        <mxCell id="hnTgBydZxQqfQA9b3OAg-50" value="" style="endArrow=none;html=1;rounded=0;entryX=0.5;entryY=0;entryDx=0;entryDy=0;exitX=0.816;exitY=1.005;exitDx=0;exitDy=0;exitPerimeter=0;" parent="1" source="hnTgBydZxQqfQA9b3OAg-17" target="hnTgBydZxQqfQA9b3OAg-40" edge="1">
          <mxGeometry width="50" height="50" relative="1" as="geometry">
            <mxPoint x="523" y="371.5" as="sourcePoint" />
            <mxPoint x="420" y="248.5" as="targetPoint" />
          </mxGeometry>
        </mxCell>
        <mxCell id="hnTgBydZxQqfQA9b3OAg-51" value="" style="endArrow=none;html=1;rounded=0;entryX=0.5;entryY=1;entryDx=0;entryDy=0;exitX=0.859;exitY=0.008;exitDx=0;exitDy=0;exitPerimeter=0;" parent="1" source="hnTgBydZxQqfQA9b3OAg-17" target="hnTgBydZxQqfQA9b3OAg-44" edge="1">
          <mxGeometry width="50" height="50" relative="1" as="geometry">
            <mxPoint x="390" y="210" as="sourcePoint" />
            <mxPoint x="440" y="280" as="targetPoint" />
          </mxGeometry>
        </mxCell>
        <mxCell id="hnTgBydZxQqfQA9b3OAg-52" value="" style="endArrow=none;html=1;rounded=0;entryX=0.5;entryY=0;entryDx=0;entryDy=0;exitX=0.5;exitY=1;exitDx=0;exitDy=0;" parent="1" source="hnTgBydZxQqfQA9b3OAg-17" target="hnTgBydZxQqfQA9b3OAg-43" edge="1">
          <mxGeometry width="50" height="50" relative="1" as="geometry">
            <mxPoint x="583" y="463" as="sourcePoint" />
            <mxPoint x="480" y="340" as="targetPoint" />
          </mxGeometry>
        </mxCell>
        <mxCell id="hnTgBydZxQqfQA9b3OAg-53" value="&lt;span style=&quot;font-size: 18px;&quot;&gt;idCumplimiento&lt;/span&gt;" style="ellipse;whiteSpace=wrap;html=1;" parent="1" vertex="1">
          <mxGeometry x="140" y="470" width="140" height="45" as="geometry" />
        </mxCell>
        <mxCell id="hnTgBydZxQqfQA9b3OAg-54" value="" style="endArrow=none;html=1;rounded=0;exitX=0.25;exitY=1;exitDx=0;exitDy=0;" parent="1" source="hnTgBydZxQqfQA9b3OAg-17" target="hnTgBydZxQqfQA9b3OAg-53" edge="1">
          <mxGeometry width="50" height="50" relative="1" as="geometry">
            <mxPoint x="470" y="357" as="sourcePoint" />
            <mxPoint x="603" y="330" as="targetPoint" />
          </mxGeometry>
        </mxCell>
        <mxCell id="hnTgBydZxQqfQA9b3OAg-62" value="" style="endArrow=none;dashed=1;html=1;rounded=0;" parent="1" edge="1">
          <mxGeometry width="50" height="50" relative="1" as="geometry">
            <mxPoint x="370" y="229.30999999999997" as="sourcePoint" />
            <mxPoint x="460" y="229.30999999999997" as="targetPoint" />
          </mxGeometry>
        </mxCell>
        <mxCell id="_2L2bTcMNIPNhjj-86vt-1" value="" style="endArrow=none;html=1;rounded=0;" edge="1" parent="1">
          <mxGeometry width="50" height="50" relative="1" as="geometry">
            <mxPoint x="237.5" y="189.83" as="sourcePoint" />
            <mxPoint x="322.5" y="190.17" as="targetPoint" />
          </mxGeometry>
        </mxCell>
        <mxCell id="_2L2bTcMNIPNhjj-86vt-2" value="" style="endArrow=none;html=1;rounded=0;" edge="1" parent="1">
          <mxGeometry width="50" height="50" relative="1" as="geometry">
            <mxPoint x="84.38" y="219.32999999999998" as="sourcePoint" />
            <mxPoint x="175.63" y="219.32999999999998" as="targetPoint" />
          </mxGeometry>
        </mxCell>
        <mxCell id="_2L2bTcMNIPNhjj-86vt-38" value="ID" style="rounded=0;whiteSpace=wrap;html=1;fillColor=#1ba1e2;fontColor=#ffffff;strokeColor=#006EAF;" vertex="1" parent="1">
          <mxGeometry x="125" y="615" width="80" height="20" as="geometry" />
        </mxCell>
        <mxCell id="_2L2bTcMNIPNhjj-86vt-39" value="Estado" style="rounded=0;whiteSpace=wrap;html=1;fillColor=#1ba1e2;fontColor=#ffffff;strokeColor=#006EAF;" vertex="1" parent="1">
          <mxGeometry x="205" y="615" width="80" height="20" as="geometry" />
        </mxCell>
        <mxCell id="_2L2bTcMNIPNhjj-86vt-40" value="En curso" style="rounded=0;whiteSpace=wrap;html=1;" vertex="1" parent="1">
          <mxGeometry x="205" y="635" width="80" height="20" as="geometry" />
        </mxCell>
        <mxCell id="_2L2bTcMNIPNhjj-86vt-41" value="1" style="rounded=0;whiteSpace=wrap;html=1;" vertex="1" parent="1">
          <mxGeometry x="125" y="635" width="80" height="20" as="geometry" />
        </mxCell>
        <mxCell id="_2L2bTcMNIPNhjj-86vt-42" value="2" style="rounded=0;whiteSpace=wrap;html=1;" vertex="1" parent="1">
          <mxGeometry x="125" y="655" width="80" height="20" as="geometry" />
        </mxCell>
        <mxCell id="_2L2bTcMNIPNhjj-86vt-43" value="Cumplida" style="rounded=0;whiteSpace=wrap;html=1;" vertex="1" parent="1">
          <mxGeometry x="205" y="655" width="80" height="20" as="geometry" />
        </mxCell>
        <mxCell id="_2L2bTcMNIPNhjj-86vt-44" value="Incumplida" style="rounded=0;whiteSpace=wrap;html=1;" vertex="1" parent="1">
          <mxGeometry x="205" y="675" width="80" height="20" as="geometry" />
        </mxCell>
        <mxCell id="_2L2bTcMNIPNhjj-86vt-45" value="3" style="rounded=0;whiteSpace=wrap;html=1;" vertex="1" parent="1">
          <mxGeometry x="125" y="675" width="80" height="20" as="geometry" />
        </mxCell>
        <mxCell id="_2L2bTcMNIPNhjj-86vt-46" value="ID" style="rounded=0;whiteSpace=wrap;html=1;fillColor=#1ba1e2;fontColor=#ffffff;strokeColor=#006EAF;" vertex="1" parent="1">
          <mxGeometry x="-100" y="615" width="80" height="20" as="geometry" />
        </mxCell>
        <mxCell id="_2L2bTcMNIPNhjj-86vt-47" value="Nombre" style="rounded=0;whiteSpace=wrap;html=1;fillColor=#1ba1e2;fontColor=#ffffff;strokeColor=#006EAF;" vertex="1" parent="1">
          <mxGeometry x="-20" y="615" width="80" height="20" as="geometry" />
        </mxCell>
        <mxCell id="_2L2bTcMNIPNhjj-86vt-48" value="MLA" style="rounded=0;whiteSpace=wrap;html=1;" vertex="1" parent="1">
          <mxGeometry x="-20" y="635" width="80" height="20" as="geometry" />
        </mxCell>
        <mxCell id="_2L2bTcMNIPNhjj-86vt-49" value="1" style="rounded=0;whiteSpace=wrap;html=1;" vertex="1" parent="1">
          <mxGeometry x="-100" y="635" width="80" height="20" as="geometry" />
        </mxCell>
        <mxCell id="_2L2bTcMNIPNhjj-86vt-50" value="2" style="rounded=0;whiteSpace=wrap;html=1;" vertex="1" parent="1">
          <mxGeometry x="-100" y="655" width="80" height="20" as="geometry" />
        </mxCell>
        <mxCell id="_2L2bTcMNIPNhjj-86vt-51" value="MLM" style="rounded=0;whiteSpace=wrap;html=1;" vertex="1" parent="1">
          <mxGeometry x="-20" y="655" width="80" height="20" as="geometry" />
        </mxCell>
        <mxCell id="_2L2bTcMNIPNhjj-86vt-52" value="MLC" style="rounded=0;whiteSpace=wrap;html=1;" vertex="1" parent="1">
          <mxGeometry x="-20" y="675" width="80" height="20" as="geometry" />
        </mxCell>
        <mxCell id="_2L2bTcMNIPNhjj-86vt-53" value="3" style="rounded=0;whiteSpace=wrap;html=1;" vertex="1" parent="1">
          <mxGeometry x="-100" y="675" width="80" height="20" as="geometry" />
        </mxCell>
        <mxCell id="_2L2bTcMNIPNhjj-86vt-54" value="ID" style="rounded=0;whiteSpace=wrap;html=1;fillColor=#1ba1e2;fontColor=#ffffff;strokeColor=#006EAF;" vertex="1" parent="1">
          <mxGeometry x="540" y="615" width="80" height="20" as="geometry" />
        </mxCell>
        <mxCell id="_2L2bTcMNIPNhjj-86vt-55" value="Nombre" style="rounded=0;whiteSpace=wrap;html=1;fillColor=#1ba1e2;fontColor=#ffffff;strokeColor=#006EAF;" vertex="1" parent="1">
          <mxGeometry x="620" y="615" width="80" height="20" as="geometry" />
        </mxCell>
        <mxCell id="_2L2bTcMNIPNhjj-86vt-56" value="OFFLINE" style="rounded=0;whiteSpace=wrap;html=1;" vertex="1" parent="1">
          <mxGeometry x="620" y="635" width="80" height="20" as="geometry" />
        </mxCell>
        <mxCell id="_2L2bTcMNIPNhjj-86vt-57" value="1" style="rounded=0;whiteSpace=wrap;html=1;" vertex="1" parent="1">
          <mxGeometry x="540" y="635" width="80" height="20" as="geometry" />
        </mxCell>
        <mxCell id="_2L2bTcMNIPNhjj-86vt-58" value="2" style="rounded=0;whiteSpace=wrap;html=1;" vertex="1" parent="1">
          <mxGeometry x="540" y="655" width="80" height="20" as="geometry" />
        </mxCell>
        <mxCell id="_2L2bTcMNIPNhjj-86vt-59" value="CHAT" style="rounded=0;whiteSpace=wrap;html=1;" vertex="1" parent="1">
          <mxGeometry x="620" y="655" width="80" height="20" as="geometry" />
        </mxCell>
        <mxCell id="_2L2bTcMNIPNhjj-86vt-60" value="C2C" style="rounded=0;whiteSpace=wrap;html=1;" vertex="1" parent="1">
          <mxGeometry x="620" y="675" width="80" height="20" as="geometry" />
        </mxCell>
        <mxCell id="_2L2bTcMNIPNhjj-86vt-61" value="3" style="rounded=0;whiteSpace=wrap;html=1;" vertex="1" parent="1">
          <mxGeometry x="540" y="675" width="80" height="20" as="geometry" />
        </mxCell>
        <mxCell id="_2L2bTcMNIPNhjj-86vt-62" value="ID" style="rounded=0;whiteSpace=wrap;html=1;fillColor=#1ba1e2;fontColor=#ffffff;strokeColor=#006EAF;" vertex="1" parent="1">
          <mxGeometry x="334" y="615" width="80" height="20" as="geometry" />
        </mxCell>
        <mxCell id="_2L2bTcMNIPNhjj-86vt-63" value="Tipo" style="rounded=0;whiteSpace=wrap;html=1;fillColor=#1ba1e2;fontColor=#ffffff;strokeColor=#006EAF;" vertex="1" parent="1">
          <mxGeometry x="414" y="615" width="80" height="20" as="geometry" />
        </mxCell>
        <mxCell id="_2L2bTcMNIPNhjj-86vt-64" value="Pago total" style="rounded=0;whiteSpace=wrap;html=1;" vertex="1" parent="1">
          <mxGeometry x="414" y="635" width="80" height="20" as="geometry" />
        </mxCell>
        <mxCell id="_2L2bTcMNIPNhjj-86vt-65" value="1" style="rounded=0;whiteSpace=wrap;html=1;" vertex="1" parent="1">
          <mxGeometry x="334" y="635" width="80" height="20" as="geometry" />
        </mxCell>
        <mxCell id="_2L2bTcMNIPNhjj-86vt-66" value="2" style="rounded=0;whiteSpace=wrap;html=1;" vertex="1" parent="1">
          <mxGeometry x="334" y="655" width="80" height="20" as="geometry" />
        </mxCell>
        <mxCell id="_2L2bTcMNIPNhjj-86vt-67" value="Condonación" style="rounded=0;whiteSpace=wrap;html=1;" vertex="1" parent="1">
          <mxGeometry x="414" y="655" width="80" height="20" as="geometry" />
        </mxCell>
        <mxCell id="_2L2bTcMNIPNhjj-86vt-68" value="Parcelamento" style="rounded=0;whiteSpace=wrap;html=1;" vertex="1" parent="1">
          <mxGeometry x="414" y="675" width="80" height="20" as="geometry" />
        </mxCell>
        <mxCell id="_2L2bTcMNIPNhjj-86vt-69" value="3" style="rounded=0;whiteSpace=wrap;html=1;" vertex="1" parent="1">
          <mxGeometry x="334" y="675" width="80" height="20" as="geometry" />
        </mxCell>
        <mxCell id="_2L2bTcMNIPNhjj-86vt-70" value="Entidad TipoAcuerdo" style="rounded=0;whiteSpace=wrap;html=1;fillColor=#008a00;fontColor=#ffffff;strokeColor=#005700;" vertex="1" parent="1">
          <mxGeometry x="334" y="595" width="160" height="20" as="geometry" />
        </mxCell>
        <mxCell id="_2L2bTcMNIPNhjj-86vt-71" value="Entidad Canal" style="rounded=0;whiteSpace=wrap;html=1;fillColor=#008a00;fontColor=#ffffff;strokeColor=#005700;" vertex="1" parent="1">
          <mxGeometry x="540" y="595" width="160" height="20" as="geometry" />
        </mxCell>
        <mxCell id="_2L2bTcMNIPNhjj-86vt-73" value="4" style="rounded=0;whiteSpace=wrap;html=1;" vertex="1" parent="1">
          <mxGeometry x="334" y="695" width="80" height="20" as="geometry" />
        </mxCell>
        <mxCell id="_2L2bTcMNIPNhjj-86vt-74" value="Pago parcial" style="rounded=0;whiteSpace=wrap;html=1;" vertex="1" parent="1">
          <mxGeometry x="414" y="695" width="80" height="20" as="geometry" />
        </mxCell>
        <mxCell id="_2L2bTcMNIPNhjj-86vt-75" value="Entidad TipoCumplimiento" style="rounded=0;whiteSpace=wrap;html=1;fillColor=#008a00;fontColor=#ffffff;strokeColor=#005700;" vertex="1" parent="1">
          <mxGeometry x="125" y="595" width="160" height="20" as="geometry" />
        </mxCell>
        <mxCell id="_2L2bTcMNIPNhjj-86vt-76" value="Entidad Site" style="rounded=0;whiteSpace=wrap;html=1;fillColor=#008a00;fontColor=#ffffff;strokeColor=#005700;" vertex="1" parent="1">
          <mxGeometry x="-100" y="595" width="160" height="20" as="geometry" />
        </mxCell>
        <mxCell id="_2L2bTcMNIPNhjj-86vt-77" value="" style="endArrow=none;html=1;rounded=0;exitX=0.5;exitY=0;exitDx=0;exitDy=0;entryX=0.5;entryY=1;entryDx=0;entryDy=0;" edge="1" parent="1" source="_2L2bTcMNIPNhjj-86vt-86" target="hnTgBydZxQqfQA9b3OAg-41">
          <mxGeometry width="50" height="50" relative="1" as="geometry">
            <mxPoint x="-10" y="560" as="sourcePoint" />
            <mxPoint x="50" y="550" as="targetPoint" />
          </mxGeometry>
        </mxCell>
        <mxCell id="_2L2bTcMNIPNhjj-86vt-78" value="" style="endArrow=none;html=1;rounded=0;entryX=0.5;entryY=1;entryDx=0;entryDy=0;exitX=0.5;exitY=0;exitDx=0;exitDy=0;" edge="1" parent="1" source="_2L2bTcMNIPNhjj-86vt-75" target="hnTgBydZxQqfQA9b3OAg-53">
          <mxGeometry width="50" height="50" relative="1" as="geometry">
            <mxPoint x="110" y="615" as="sourcePoint" />
            <mxPoint x="175" y="530" as="targetPoint" />
          </mxGeometry>
        </mxCell>
        <mxCell id="_2L2bTcMNIPNhjj-86vt-79" value="" style="endArrow=none;html=1;rounded=0;entryX=0.5;entryY=1;entryDx=0;entryDy=0;exitX=0.5;exitY=0;exitDx=0;exitDy=0;" edge="1" parent="1" source="_2L2bTcMNIPNhjj-86vt-81" target="hnTgBydZxQqfQA9b3OAg-43">
          <mxGeometry width="50" height="50" relative="1" as="geometry">
            <mxPoint x="260" y="635" as="sourcePoint" />
            <mxPoint x="325" y="550" as="targetPoint" />
          </mxGeometry>
        </mxCell>
        <mxCell id="_2L2bTcMNIPNhjj-86vt-80" value="" style="endArrow=none;html=1;rounded=0;entryX=0.5;entryY=1;entryDx=0;entryDy=0;exitX=0.5;exitY=0;exitDx=0;exitDy=0;" edge="1" parent="1" source="_2L2bTcMNIPNhjj-86vt-83" target="hnTgBydZxQqfQA9b3OAg-40">
          <mxGeometry width="50" height="50" relative="1" as="geometry">
            <mxPoint x="480" y="695" as="sourcePoint" />
            <mxPoint x="545" y="610" as="targetPoint" />
          </mxGeometry>
        </mxCell>
        <mxCell id="_2L2bTcMNIPNhjj-86vt-82" value="" style="endArrow=none;html=1;rounded=0;entryX=0.5;entryY=1;entryDx=0;entryDy=0;exitX=0.5;exitY=0;exitDx=0;exitDy=0;" edge="1" parent="1" source="_2L2bTcMNIPNhjj-86vt-70" target="_2L2bTcMNIPNhjj-86vt-81">
          <mxGeometry width="50" height="50" relative="1" as="geometry">
            <mxPoint x="414" y="595" as="sourcePoint" />
            <mxPoint x="375" y="520" as="targetPoint" />
          </mxGeometry>
        </mxCell>
        <mxCell id="_2L2bTcMNIPNhjj-86vt-81" value="" style="rhombus;whiteSpace=wrap;html=1;" vertex="1" parent="1">
          <mxGeometry x="380" y="540" width="30" height="35" as="geometry" />
        </mxCell>
        <mxCell id="_2L2bTcMNIPNhjj-86vt-84" value="" style="endArrow=none;html=1;rounded=0;entryX=0.5;entryY=1;entryDx=0;entryDy=0;exitX=0.5;exitY=0;exitDx=0;exitDy=0;" edge="1" parent="1" source="_2L2bTcMNIPNhjj-86vt-71" target="_2L2bTcMNIPNhjj-86vt-83">
          <mxGeometry width="50" height="50" relative="1" as="geometry">
            <mxPoint x="620" y="595" as="sourcePoint" />
            <mxPoint x="544" y="520" as="targetPoint" />
          </mxGeometry>
        </mxCell>
        <mxCell id="_2L2bTcMNIPNhjj-86vt-83" value="" style="rhombus;whiteSpace=wrap;html=1;" vertex="1" parent="1">
          <mxGeometry x="560" y="530" width="30" height="35" as="geometry" />
        </mxCell>
        <mxCell id="_2L2bTcMNIPNhjj-86vt-85" value="" style="rhombus;whiteSpace=wrap;html=1;" vertex="1" parent="1">
          <mxGeometry x="190" y="530" width="30" height="35" as="geometry" />
        </mxCell>
        <mxCell id="_2L2bTcMNIPNhjj-86vt-87" value="" style="endArrow=none;html=1;rounded=0;entryX=0.5;entryY=1;entryDx=0;entryDy=0;exitX=0.5;exitY=0;exitDx=0;exitDy=0;" edge="1" parent="1" source="_2L2bTcMNIPNhjj-86vt-76" target="_2L2bTcMNIPNhjj-86vt-86">
          <mxGeometry width="50" height="50" relative="1" as="geometry">
            <mxPoint x="-20" y="595" as="sourcePoint" />
            <mxPoint x="45" y="510" as="targetPoint" />
          </mxGeometry>
        </mxCell>
        <mxCell id="_2L2bTcMNIPNhjj-86vt-86" value="" style="rhombus;whiteSpace=wrap;html=1;" vertex="1" parent="1">
          <mxGeometry x="5" y="530" width="30" height="35" as="geometry" />
        </mxCell>
        <mxCell id="_2L2bTcMNIPNhjj-86vt-88" value="&lt;span style=&quot;font-size: 10px;&quot;&gt;M&lt;/span&gt;" style="text;strokeColor=none;fillColor=none;align=left;verticalAlign=middle;spacingLeft=4;spacingRight=4;overflow=hidden;points=[[0,0.5],[1,0.5]];portConstraint=eastwest;rotatable=0;whiteSpace=wrap;html=1;fontSize=20;" vertex="1" parent="1">
          <mxGeometry x="30" y="515" width="20" height="30" as="geometry" />
        </mxCell>
        <mxCell id="_2L2bTcMNIPNhjj-86vt-89" value="&lt;font style=&quot;font-size: 10px;&quot;&gt;1&lt;/font&gt;" style="text;strokeColor=none;fillColor=none;align=left;verticalAlign=middle;spacingLeft=4;spacingRight=4;overflow=hidden;points=[[0,0.5],[1,0.5]];portConstraint=eastwest;rotatable=0;whiteSpace=wrap;html=1;fontSize=20;" vertex="1" parent="1">
          <mxGeometry x="20" y="555" width="20" height="30" as="geometry" />
        </mxCell>
        <mxCell id="_2L2bTcMNIPNhjj-86vt-90" value="&lt;font style=&quot;font-size: 10px;&quot;&gt;M&lt;/font&gt;" style="text;strokeColor=none;fillColor=none;align=left;verticalAlign=middle;spacingLeft=4;spacingRight=4;overflow=hidden;points=[[0,0.5],[1,0.5]];portConstraint=eastwest;rotatable=0;whiteSpace=wrap;html=1;fontSize=20;" vertex="1" parent="1">
          <mxGeometry x="210" y="510" width="20" height="30" as="geometry" />
        </mxCell>
        <mxCell id="_2L2bTcMNIPNhjj-86vt-91" value="&lt;font style=&quot;font-size: 10px;&quot;&gt;1&lt;/font&gt;" style="text;strokeColor=none;fillColor=none;align=left;verticalAlign=middle;spacingLeft=4;spacingRight=4;overflow=hidden;points=[[0,0.5],[1,0.5]];portConstraint=eastwest;rotatable=0;whiteSpace=wrap;html=1;fontSize=20;" vertex="1" parent="1">
          <mxGeometry x="210" y="542.5" width="20" height="30" as="geometry" />
        </mxCell>
        <mxCell id="_2L2bTcMNIPNhjj-86vt-92" value="&lt;font style=&quot;font-size: 10px;&quot;&gt;M&lt;/font&gt;" style="text;strokeColor=none;fillColor=none;align=left;verticalAlign=middle;spacingLeft=4;spacingRight=4;overflow=hidden;points=[[0,0.5],[1,0.5]];portConstraint=eastwest;rotatable=0;whiteSpace=wrap;html=1;fontSize=20;" vertex="1" parent="1">
          <mxGeometry x="394" y="515" width="20" height="30" as="geometry" />
        </mxCell>
        <mxCell id="_2L2bTcMNIPNhjj-86vt-93" value="&lt;font style=&quot;font-size: 10px;&quot;&gt;1&lt;/font&gt;" style="text;strokeColor=none;fillColor=none;align=left;verticalAlign=middle;spacingLeft=4;spacingRight=4;overflow=hidden;points=[[0,0.5],[1,0.5]];portConstraint=eastwest;rotatable=0;whiteSpace=wrap;html=1;fontSize=20;" vertex="1" parent="1">
          <mxGeometry x="404" y="555" width="20" height="30" as="geometry" />
        </mxCell>
        <mxCell id="_2L2bTcMNIPNhjj-86vt-94" value="&lt;font style=&quot;font-size: 10px;&quot;&gt;1&lt;/font&gt;" style="text;strokeColor=none;fillColor=none;align=left;verticalAlign=middle;spacingLeft=4;spacingRight=4;overflow=hidden;points=[[0,0.5],[1,0.5]];portConstraint=eastwest;rotatable=0;whiteSpace=wrap;html=1;fontSize=20;" vertex="1" parent="1">
          <mxGeometry x="590" y="545" width="20" height="30" as="geometry" />
        </mxCell>
        <mxCell id="_2L2bTcMNIPNhjj-86vt-95" value="&lt;font style=&quot;font-size: 10px;&quot;&gt;M&lt;/font&gt;" style="text;strokeColor=none;fillColor=none;align=left;verticalAlign=middle;spacingLeft=4;spacingRight=4;overflow=hidden;points=[[0,0.5],[1,0.5]];portConstraint=eastwest;rotatable=0;whiteSpace=wrap;html=1;fontSize=20;" vertex="1" parent="1">
          <mxGeometry x="589" y="510" width="20" height="30" as="geometry" />
        </mxCell>
        <mxCell id="_2L2bTcMNIPNhjj-86vt-96" value="" style="endArrow=none;dashed=1;html=1;rounded=0;" edge="1" parent="1">
          <mxGeometry width="50" height="50" relative="1" as="geometry">
            <mxPoint y="495" as="sourcePoint" />
            <mxPoint x="90" y="495" as="targetPoint" />
          </mxGeometry>
        </mxCell>
        <mxCell id="_2L2bTcMNIPNhjj-86vt-97" value="" style="endArrow=none;dashed=1;html=1;rounded=0;" edge="1" parent="1">
          <mxGeometry width="50" height="50" relative="1" as="geometry">
            <mxPoint x="499" y="509.31" as="sourcePoint" />
            <mxPoint x="589" y="509.31" as="targetPoint" />
          </mxGeometry>
        </mxCell>
        <mxCell id="_2L2bTcMNIPNhjj-86vt-98" value="" style="endArrow=none;dashed=1;html=1;rounded=0;" edge="1" parent="1">
          <mxGeometry width="50" height="50" relative="1" as="geometry">
            <mxPoint x="334" y="509.31" as="sourcePoint" />
            <mxPoint x="424" y="509.31" as="targetPoint" />
          </mxGeometry>
        </mxCell>
        <mxCell id="_2L2bTcMNIPNhjj-86vt-99" value="" style="endArrow=none;dashed=1;html=1;rounded=0;" edge="1" parent="1">
          <mxGeometry width="50" height="50" relative="1" as="geometry">
            <mxPoint x="165" y="499.99999999999994" as="sourcePoint" />
            <mxPoint x="255" y="499.99999999999994" as="targetPoint" />
          </mxGeometry>
        </mxCell>
      </root>
    </mxGraphModel>
  </diagram>
</mxfile>
